<svg xmlns="http://www.w3.org/2000/svg" width="631" height="389" viewBox="0 0 631 389" fill="none">
  <path fill-rule="evenodd" clip-rule="evenodd" d="M79.1464 0.353536C79.3417 0.158274 79.6583 0.158274 79.8535 0.353536L82 2.50001C82.1845 2.68452 82.5 2.55384 82.5 2.29291C82.5 2.13115 82.6311 2.00002 82.7929 2.00002H83C83.2761 2.00002 83.5 2.22388 83.5 2.50002V3.41422C83.5 3.78929 83.649 4.14899 83.9142 4.41421L95.8431 16.3431C100.883 21.3829 109.5 17.8135 109.5 10.6863V2.50002C109.5 2.22388 109.724 2.00002 110 2.00002C110.276 2.00002 110.5 2.22387 110.5 2.50002V27.6863C110.5 29.808 111.343 31.8429 112.843 33.3431L122.843 43.3431C127.883 48.3829 136.5 44.8135 136.5 37.6863V2.50002C136.5 2.22388 136.724 2.00002 137 2.00002C137.276 2.00002 137.5 2.22388 137.5 2.50002V54.6863C137.5 56.808 138.343 58.8429 139.843 60.3431L149.843 70.3431C154.883 75.3829 163.5 71.8135 163.5 64.6863V3.70711C163.5 3.51958 163.425 3.33972 163.293 3.20711C163.017 2.93097 163.017 2.48324 163.293 2.20711C163.426 2.07451 163.605 2.00002 163.793 2.00002C164.183 2.00002 164.5 2.3166 164.5 2.70712C164.5 2.89465 164.574 3.0745 164.707 3.20711L177 15.5C181.982 20.4818 190.5 16.9535 190.5 9.90813V2.50002C190.5 2.22388 190.724 2.00002 191 2.00002C191.276 2.00002 191.5 2.22388 191.5 2.50002V26.6863C191.5 28.808 192.343 30.8429 193.843 32.3432L203.843 42.3432C208.883 47.3829 217.5 43.8135 217.5 36.6863V2.50002C217.5 2.22388 217.724 2.00002 218 2.00002C218.276 2.00002 218.5 2.22388 218.5 2.50002V53.6863C218.5 55.808 219.343 57.8429 220.843 59.3431L230.843 69.3432C235.883 74.3829 244.5 70.8135 244.5 63.6863V3.70716C244.5 3.51963 244.426 3.33977 244.293 3.20716L244.146 3.06072C243.951 2.86546 243.951 2.54887 244.146 2.3536C244.342 2.15834 244.658 2.15834 244.854 2.35359L245.5 3L271.293 28.7929C271.426 28.9255 271.605 29 271.793 29C272.183 29 272.5 29.3166 272.5 29.7071C272.5 29.8947 272.574 30.0746 272.707 30.2072L284.843 42.3432C289.883 47.3829 298.5 43.8136 298.5 36.6864V0.5C298.5 0.223858 298.724 0 299 0C299.276 0 299.5 0.223856 299.5 0.499999V53.6864C299.5 55.8081 300.343 57.8429 301.843 59.3432L311.843 69.3432C316.883 74.3829 325.5 70.8136 325.5 63.6864V29.728C325.5 27.6063 324.657 25.5714 323.157 24.0711L302.146 3.06072C301.951 2.86546 301.951 2.54887 302.146 2.3536C302.342 2.15834 302.658 2.15835 302.854 2.35361L316 15.5C319.506 19.0058 325.5 16.5229 325.5 11.565V6.5C325.5 6.22386 325.724 6 326 6C326.276 6 326.5 6.22386 326.5 6.5V22.6863C326.5 24.8081 327.343 26.8429 328.843 28.3432L338.843 38.3432C343.883 43.3829 352.5 39.8136 352.5 32.6863V2.50002C352.5 2.22388 352.724 2.00002 353 2.00002C353.276 2.00002 353.5 2.22387 353.5 2.50002V49.6863C353.5 51.8081 354.343 53.8429 355.843 55.3432L365.843 65.3432C370.883 70.3829 379.5 66.8136 379.5 59.6864L379.5 25.728C379.5 23.6063 378.657 21.5714 377.157 20.0711L360.146 3.06072C359.951 2.86546 359.951 2.54887 360.146 2.3536C360.342 2.15834 360.658 2.15835 360.854 2.35361L375 16.5C376.661 18.1607 379.5 16.9845 379.5 14.6361V12.5C379.5 12.2239 379.724 12 380 12C380.276 12 380.5 12.2239 380.5 12.5V19.0711C380.5 20.9465 381.245 22.7451 382.571 24.0711L392.843 34.3432C397.883 39.3829 406.5 35.8136 406.5 28.6863V2.50002C406.5 2.22388 406.724 2.00002 407 2.00002C407.276 2.00002 407.5 2.22388 407.5 2.50002V45.6863C407.5 47.8081 408.343 49.8429 409.843 51.3432L419.843 61.3432C424.883 66.3829 433.5 62.8136 433.5 55.6863L433.5 2.50002C433.5 2.22388 433.724 2.00002 434 2.00002C434.276 2.00002 434.5 2.22388 434.5 2.50002L434.5 72.6863C434.5 74.8081 435.343 76.8429 436.843 78.3432L446.843 88.3432C451.883 93.3829 460.5 89.8136 460.5 82.6863L460.5 2.50002C460.5 2.22388 460.724 2.00002 461 2.00002C461.276 2.00002 461.5 2.22388 461.5 2.50002V99.6863C461.5 101.808 462.343 103.843 463.843 105.343L473.843 115.343C478.883 120.383 487.5 116.814 487.5 109.686L487.5 2.50002C487.5 2.22388 487.724 2.00002 488 2.00002C488.276 2.00002 488.5 2.22388 488.5 2.50002L488.5 126.686C488.5 128.808 489.343 130.843 490.843 132.343L500.843 142.343C505.883 147.383 514.5 143.814 514.5 136.686V2.50002C514.5 2.22388 514.724 2.00002 515 2.00002C515.276 2.00002 515.5 2.22388 515.5 2.50002V153.686C515.5 155.808 516.343 157.843 517.843 159.343L533.843 175.343C538.883 180.383 547.5 176.814 547.5 169.686V2.50003C547.5 2.22389 547.724 2.00003 548 2.00003C548.276 2.00003 548.5 2.22389 548.5 2.50003V186.686C548.5 188.808 549.343 190.843 550.843 192.343L630.146 271.647C630.342 271.842 630.342 272.158 630.146 272.354C629.951 272.549 629.635 272.549 629.439 272.354L562.157 205.071C557.117 200.031 548.5 203.601 548.5 210.728V244.686C548.5 246.808 549.343 248.843 550.843 250.343L572.146 271.647C572.342 271.842 572.342 272.158 572.146 272.354C571.951 272.549 571.635 272.549 571.439 272.354L562.157 263.071C557.117 258.031 548.5 261.601 548.5 268.728V383.5C548.5 383.776 548.276 384 548 384C547.724 384 547.5 383.776 547.5 383.5V251.728C547.5 249.606 546.657 247.571 545.157 246.071L529.157 230.071C524.117 225.031 515.5 228.601 515.5 235.728V352.757C515.5 353.553 515.816 354.316 516.379 354.879L518.146 356.646C518.342 356.842 518.342 357.158 518.146 357.354C517.951 357.549 517.635 357.549 517.439 357.354L517.121 357.036C516.523 356.437 515.5 356.861 515.5 357.707V383.5C515.5 383.776 515.276 384 515 384C514.724 384 514.5 383.776 514.5 383.5V357.728C514.5 355.606 513.657 353.571 512.157 352.071L502.157 342.071C497.117 337.031 488.5 340.601 488.5 347.728V383.5C488.5 383.776 488.276 384 488 384C487.724 384 487.5 383.776 487.5 383.5V330.728C487.5 328.606 486.657 326.571 485.157 325.071L475.157 315.071C470.117 310.031 461.5 313.601 461.5 320.728V382L461.5 383.5C461.5 383.776 461.276 384 461 384C460.724 384 460.5 383.776 460.5 383.5V382.879C460.5 382.581 460.382 382.296 460.172 382.086L448.157 370.071C443.117 365.031 434.5 368.601 434.5 375.728V383.5C434.5 383.776 434.276 384 434 384C433.724 384 433.5 383.776 433.5 383.5V358.728C433.5 356.606 432.657 354.571 431.157 353.071L421.157 343.071C416.117 338.031 407.5 341.601 407.5 348.728V383.5C407.5 383.776 407.276 384 407 384C406.724 384 406.5 383.776 406.5 383.5V331.728C406.5 329.606 405.657 327.571 404.157 326.071L394.157 316.071C389.117 311.031 380.5 314.601 380.5 321.728V379.929C380.5 381.255 381.027 382.527 381.964 383.464L385.146 386.646C385.342 386.842 385.342 387.158 385.146 387.354C384.951 387.549 384.635 387.549 384.439 387.354L380.793 383.707C380.685 383.599 380.5 383.676 380.5 383.828C380.5 383.923 380.423 384 380.328 384H380C379.724 384 379.5 383.776 379.5 383.5V382.879C379.5 382.581 379.382 382.296 379.172 382.086L367.157 370.071C362.117 365.031 353.5 368.601 353.5 375.728V383.5C353.5 383.776 353.276 384 353 384C352.724 384 352.5 383.776 352.5 383.5V358.728C352.5 356.606 351.657 354.571 350.157 353.071L340.157 343.071C335.117 338.031 326.5 341.601 326.5 348.728V383.5C326.5 383.776 326.276 384 326 384C325.724 384 325.5 383.776 325.5 383.5V331.728C325.5 329.606 324.657 327.571 323.157 326.071L313.157 316.071C308.117 311.031 299.5 314.601 299.5 321.728V353.686C299.5 355.808 300.343 357.843 301.843 359.343L323.146 380.646C323.342 380.842 323.342 381.158 323.146 381.354C322.951 381.549 322.635 381.549 322.439 381.354L312.293 371.207C307.572 366.486 299.5 369.83 299.5 376.506V383.5C299.5 383.776 299.276 384 299 384C298.724 384 298.5 383.776 298.5 383.5V360.728C298.5 358.606 297.657 356.571 296.157 355.071L286.157 345.071C281.117 340.031 272.5 343.601 272.5 350.728V375.5C272.5 375.776 272.276 376 272 376C271.724 376 271.5 375.776 271.5 375.5V333.728C271.5 331.606 270.657 329.571 269.157 328.071L259.157 318.071C254.117 313.031 245.5 316.601 245.5 323.728V359.686C245.5 361.808 246.343 363.843 247.843 365.343L267.146 384.646C267.342 384.842 267.342 385.158 267.146 385.354C266.951 385.549 266.635 385.549 266.439 385.354L255.293 374.207C251.679 370.593 245.5 373.153 245.5 378.263V383.5C245.5 383.776 245.276 384 245 384C244.724 384 244.5 383.776 244.5 383.5V366.728C244.5 364.606 243.657 362.571 242.157 361.071L232.157 351.071C227.117 346.031 218.5 349.601 218.5 356.728V383.5C218.5 383.776 218.276 384 218 384C217.724 384 217.5 383.776 217.5 383.5V339.728C217.5 337.606 216.657 335.571 215.157 334.071L205.157 324.071C200.117 319.031 191.5 322.601 191.5 329.728V365.686C191.5 367.808 192.343 369.843 193.843 371.343L207.146 384.646C207.342 384.842 207.342 385.158 207.146 385.354C206.951 385.549 206.635 385.549 206.439 385.354L198.293 377.207C195.786 374.7 191.5 376.476 191.5 380.021V383.5C191.5 383.776 191.276 384 191 384C190.724 384 190.5 383.776 190.5 383.5V372.728C190.5 370.606 189.657 368.571 188.157 367.071L178.157 357.071C173.117 352.031 164.5 355.601 164.5 362.728V383.5C164.5 383.776 164.276 384 164 384C163.724 384 163.5 383.776 163.5 383.5V345.728C163.5 343.606 162.657 341.571 161.157 340.071L151.157 330.071C146.117 325.031 137.5 328.601 137.5 335.728L137.5 380.929C137.5 382.255 138.027 383.527 138.964 384.464L142.146 387.646C142.342 387.842 142.342 388.158 142.146 388.354C141.951 388.549 141.635 388.549 141.439 388.354L137.207 384.121C137.129 384.044 137.024 384 136.914 384C136.685 384 136.5 383.815 136.5 383.586C136.5 383.476 136.456 383.371 136.379 383.293L123.793 370.707C118.887 365.802 110.5 369.276 110.5 376.213V383.5C110.5 383.776 110.276 384 110 384C109.724 384 109.5 383.776 109.5 383.5V359.728C109.5 357.606 108.657 355.571 107.157 354.071L97.1568 344.071C92.1171 339.031 83.5 342.601 83.5 349.728V383C83.5 383.552 83.0523 384 82.5 384V332.728C82.5 330.606 81.6571 328.571 80.1568 327.071L70.1568 317.071C65.1171 312.031 56.5 315.601 56.5 322.728L56.5 357.814C56.5 360.134 57.5072 362.34 59.2605 363.859L82.5 384C82.1383 384.417 81.5068 384.462 81.0894 384.101L67.5036 372.326C63.1979 368.595 56.5 371.653 56.5 377.351V383.5C56.5 383.776 56.2761 384 56 384C55.7238 384 55.5 383.776 55.5 383.5V365.576C55.5 363.256 54.4927 361.05 52.7394 359.531L42.7394 350.864C37.5589 346.374 29.5 350.054 29.5 356.91L29.5 383.5C29.5 383.776 29.2761 384 29 384C28.7238 384 28.5 383.776 28.5 383.5L28.5 342.176C28.5 339.856 27.4927 337.65 25.7394 336.131L7.22292 320.083C7.01424 319.902 6.99168 319.587 7.17253 319.378C7.35339 319.169 7.66918 319.147 7.87786 319.327L15.2605 325.726C20.4411 330.216 28.5 326.536 28.5 319.68L28.5 278.728C28.5 276.606 27.6571 274.571 26.1568 273.071L4.14645 251.061C3.95119 250.865 3.95119 250.549 4.14645 250.354C4.34171 250.158 4.6583 250.158 4.85356 250.354L14.8431 260.343C19.8829 265.383 28.5 261.814 28.5 254.686L28.5 210.728C28.5 208.606 27.6571 206.571 26.1568 205.071L4.14645 183.061C3.95118 182.865 3.95118 182.549 4.14645 182.354C4.34171 182.158 4.65829 182.158 4.85355 182.354L14.8431 192.343C19.8829 197.383 28.5 193.814 28.5 186.686L28.5 150.728C28.5 148.606 27.6571 146.571 26.1568 145.071L4.14645 123.061C3.95119 122.865 3.95119 122.549 4.14645 122.354C4.34171 122.158 4.65829 122.158 4.85355 122.354L14.8431 132.343C19.8829 137.383 28.5 133.814 28.5 126.686L28.5 90.7279C28.5 88.6062 27.6571 86.5713 26.1568 85.0711L17.1568 76.0711C12.1171 71.0313 3.49999 74.6007 3.49999 81.7279L3.49998 383.5C3.49998 383.776 3.27612 384 2.99998 384C2.72384 384 2.49998 383.776 2.49998 383.5L2.49999 62.5355C2.49999 61.8176 2.21478 61.129 1.7071 60.6213L0.146449 59.0607C-0.0488131 58.8654 -0.0488127 58.5488 0.14645 58.3536C0.341712 58.1583 0.658293 58.1583 0.853554 58.3536L1.08579 58.5858C1.60766 59.1077 2.49999 58.7381 2.49999 58L2.5 6.53553C2.5 5.81756 2.21479 5.129 1.70711 4.62132L0.146448 3.06066C-0.0488142 2.8654 -0.0488142 2.54882 0.146448 2.35355C0.34171 2.15829 0.658292 2.15829 0.853555 2.35355L1.50001 3.00001C1.86903 3.36903 2.5 3.10767 2.5 2.5858V2.50002C2.5 2.22388 2.72385 2.00002 3 2.00002C3.27614 2.00002 3.5 2.22388 3.5 2.50002L3.5 4.12132C3.5 4.68393 3.72349 5.22349 4.12131 5.62131L14.8431 16.3431C19.8829 21.3829 28.5 17.8135 28.5 10.6863V2.50002C28.5 2.22388 28.7239 2.00002 29 2.00002C29.2761 2.00002 29.5 2.22387 29.5 2.50002L29.5 27.6863C29.5 29.808 30.3429 31.8429 31.8431 33.3431L41.8431 43.3431C46.8829 48.3829 55.5 44.8135 55.5 37.6863L55.5 2.50002C55.5 2.22388 55.7239 2.00002 56 2.00002C56.2761 2.00002 56.5 2.22388 56.5 2.50002L56.5 54.6863C56.5 56.808 57.3429 58.8429 58.8431 60.3431L68.8431 70.3431C73.8829 75.3829 82.5 71.8135 82.5 64.6863V5.94975C82.5 4.96656 82.1094 4.02364 81.4142 3.32842L79.1464 1.06064C78.9512 0.865381 78.9512 0.548798 79.1464 0.353536ZM29.5 334.414C29.5 336.734 30.5072 338.94 32.2605 340.459L42.2605 349.126C47.4411 353.616 55.5 349.936 55.5 343.08L55.5 305.728C55.5 303.606 54.6571 301.571 53.1568 300.071L43.1568 290.071C38.1171 285.031 29.5 288.601 29.5 295.728L29.5 334.414ZM134.157 313.071C135.657 314.571 136.5 316.606 136.5 318.728L136.5 362.686C136.5 369.814 127.883 373.383 122.843 368.343L112.843 358.343C111.343 356.843 110.5 354.808 110.5 352.686L110.5 308.728C110.5 301.601 119.117 298.031 124.157 303.071L134.157 313.071ZM107.157 286.071C108.657 287.571 109.5 289.606 109.5 291.728L109.5 335.686C109.5 342.814 100.883 346.383 95.8431 341.343L85.8431 331.343C84.3428 329.843 83.5 327.808 83.5 325.686L83.5 281.728C83.5 274.601 92.1171 271.031 97.1568 276.071L107.157 286.071ZM80.1568 259.071C81.6571 260.571 82.5 262.606 82.5 264.728L82.5 308.686C82.5 315.814 73.8829 319.383 68.8431 314.343L58.8431 304.343C57.3428 302.843 56.5 300.808 56.5 298.686V254.728C56.5 247.601 65.1171 244.031 70.1568 249.071L80.1568 259.071ZM53.1568 232.071C54.6571 233.571 55.5 235.606 55.5 237.728V281.686C55.5 288.814 46.8828 292.383 41.8431 287.343L31.8431 277.343C30.3428 275.843 29.5 273.808 29.5 271.686L29.5 227.728C29.5 220.601 38.1171 217.031 43.1568 222.071L53.1568 232.071ZM29.5 203.686C29.5 205.808 30.3428 207.843 31.8431 209.343L41.8431 219.343C46.8829 224.383 55.5 220.814 55.5 213.686L55.5 177.728C55.5 175.606 54.6571 173.571 53.1568 172.071L43.1568 162.071C38.1171 157.031 29.5 160.601 29.5 167.728L29.5 203.686ZM56.5 230.686C56.5 232.808 57.3428 234.843 58.8431 236.343L68.8431 246.343C73.8829 251.383 82.5 247.814 82.5 240.686L82.5 204.728C82.5 202.606 81.6571 200.571 80.1569 199.071L70.1568 189.071C65.1171 184.031 56.5 187.601 56.5 194.728L56.5 230.686ZM83.5 257.686C83.5 259.808 84.3428 261.843 85.8431 263.343L95.8431 273.343C100.883 278.383 109.5 274.814 109.5 267.686V231.728C109.5 229.606 108.657 227.571 107.157 226.071L97.1569 216.071C92.1171 211.031 83.5 214.601 83.5 221.728L83.5 257.686ZM110.5 284.686C110.5 286.808 111.343 288.843 112.843 290.343L122.843 300.343C127.883 305.383 136.5 301.814 136.5 294.686V258.728C136.5 256.606 135.657 254.571 134.157 253.071L124.157 243.071C119.117 238.031 110.5 241.601 110.5 248.728V284.686ZM149.843 327.343C154.883 332.383 163.5 328.814 163.5 321.686L163.5 285.728C163.5 283.606 162.657 281.571 161.157 280.071L151.157 270.071C146.117 265.031 137.5 268.601 137.5 275.728V311.686C137.5 313.808 138.343 315.843 139.843 317.343L149.843 327.343ZM164.5 338.686C164.5 340.808 165.343 342.843 166.843 344.343L176.843 354.343C181.883 359.383 190.5 355.814 190.5 348.686V312.728C190.5 310.606 189.657 308.571 188.157 307.071L178.157 297.071C173.117 292.031 164.5 295.601 164.5 302.728L164.5 338.686ZM242.157 301.071C243.657 302.571 244.5 304.606 244.5 306.728V342.686C244.5 349.814 235.883 353.383 230.843 348.343L220.843 338.343C219.343 336.843 218.5 334.808 218.5 332.686V296.728C218.5 289.601 227.117 286.031 232.157 291.071L242.157 301.071ZM215.157 274.071C216.657 275.571 217.5 277.606 217.5 279.728V315.686C217.5 322.814 208.883 326.383 203.843 321.343L193.843 311.343C192.343 309.843 191.5 307.808 191.5 305.686V269.728C191.5 262.601 200.117 259.031 205.157 264.071L215.157 274.071ZM188.157 247.071C189.657 248.571 190.5 250.606 190.5 252.728V288.686C190.5 295.814 181.883 299.383 176.843 294.343L166.843 284.343C165.343 282.843 164.5 280.808 164.5 278.686V242.728C164.5 235.601 173.117 232.031 178.157 237.071L188.157 247.071ZM161.157 220.071C162.657 221.571 163.5 223.606 163.5 225.728V261.686C163.5 268.814 154.883 272.383 149.843 267.343L139.843 257.343C138.343 255.843 137.5 253.808 137.5 251.686V215.728C137.5 208.601 146.117 205.031 151.157 210.071L161.157 220.071ZM134.157 193.071C135.657 194.571 136.5 196.606 136.5 198.728V234.686C136.5 241.814 127.883 245.383 122.843 240.343L112.843 230.343C111.343 228.843 110.5 226.808 110.5 224.686V188.728C110.5 181.601 119.117 178.031 124.157 183.071L134.157 193.071ZM107.157 166.071C108.657 167.571 109.5 169.606 109.5 171.728V207.686C109.5 214.814 100.883 218.383 95.8431 213.343L85.8431 203.343C84.3429 201.843 83.5 199.808 83.5 197.686V161.728C83.5 154.601 92.1171 151.031 97.1569 156.071L107.157 166.071ZM80.1569 139.071C81.6571 140.571 82.5 142.606 82.5 144.728V180.686C82.5 187.814 73.8829 191.383 68.8431 186.343L58.8431 176.343C57.3428 174.843 56.5 172.808 56.5 170.686V134.728C56.5 127.601 65.1171 124.031 70.1569 129.071L80.1569 139.071ZM53.1568 112.071C54.6571 113.571 55.5 115.606 55.5 117.728V153.686C55.5 160.814 46.8829 164.383 41.8431 159.343L31.8431 149.343C30.3428 147.843 29.5 145.808 29.5 143.686L29.5 107.728C29.5 100.601 38.1171 97.0313 43.1569 102.071L53.1568 112.071ZM3.49999 57.6863C3.49999 59.808 4.34285 61.8428 5.84314 63.3431L14.8431 72.3431C19.8829 77.3829 28.5 73.8135 28.5 66.6863L28.5 34.7279C28.5 32.6062 27.6571 30.5714 26.1568 29.0711L17.1568 20.0711C12.1171 15.0313 3.5 18.6007 3.5 25.7279L3.49999 57.6863ZM29.5 83.6863C29.5 85.808 30.3428 87.8428 31.8431 89.3431L41.8431 99.3431C46.8829 104.383 55.5 100.814 55.5 93.6863L55.5 61.7279C55.5 59.6062 54.6571 57.5714 53.1568 56.0711L43.1568 46.0711C38.1171 41.0313 29.5 44.6007 29.5 51.7279L29.5 83.6863ZM56.5 110.686C56.5 112.808 57.3428 114.843 58.8431 116.343L68.8431 126.343C73.8829 131.383 82.5 127.814 82.5 120.686V88.7279C82.5 86.6062 81.6571 84.5714 80.1569 83.0711L70.1569 73.0711C65.1171 68.0313 56.5 71.6007 56.5 78.7279L56.5 110.686ZM83.5 137.686C83.5 139.808 84.3429 141.843 85.8431 143.343L95.8431 153.343C100.883 158.383 109.5 154.814 109.5 147.686V115.728C109.5 113.606 108.657 111.571 107.157 110.071L97.1569 100.071C92.1171 95.0313 83.5 98.6007 83.5 105.728V137.686ZM110.5 164.686C110.5 166.808 111.343 168.843 112.843 170.343L122.843 180.343C127.883 185.383 136.5 181.814 136.5 174.686V142.728C136.5 140.606 135.657 138.571 134.157 137.071L124.157 127.071C119.117 122.031 110.5 125.601 110.5 132.728V164.686ZM137.5 191.686C137.5 193.808 138.343 195.843 139.843 197.343L149.843 207.343C154.883 212.383 163.5 208.814 163.5 201.686V169.728C163.5 167.606 162.657 165.571 161.157 164.071L151.157 154.071C146.117 149.031 137.5 152.601 137.5 159.728V191.686ZM164.5 218.686C164.5 220.808 165.343 222.843 166.843 224.343L176.843 234.343C181.883 239.383 190.5 235.814 190.5 228.686V196.728C190.5 194.606 189.657 192.571 188.157 191.071L178.157 181.071C173.117 176.031 164.5 179.601 164.5 186.728V218.686ZM191.5 245.686C191.5 247.808 192.343 249.843 193.843 251.343L203.843 261.343C208.883 266.383 217.5 262.814 217.5 255.686V223.728C217.5 221.606 216.657 219.571 215.157 218.071L205.157 208.071C200.117 203.031 191.5 206.601 191.5 213.728V245.686ZM218.5 272.686C218.5 274.808 219.343 276.843 220.843 278.343L230.843 288.343C235.883 293.383 244.5 289.814 244.5 282.686V250.728C244.5 248.606 243.657 246.571 242.157 245.071L232.157 235.071C227.117 230.031 218.5 233.601 218.5 240.728V272.686ZM245.5 299.686C245.5 301.808 246.343 303.843 247.843 305.343L257.843 315.343C262.883 320.383 271.5 316.814 271.5 309.686V277.728C271.5 275.606 270.657 273.571 269.157 272.071L259.157 262.071C254.117 257.031 245.5 260.601 245.5 267.728V299.686ZM272.5 326.686C272.5 328.808 273.343 330.843 274.843 332.343L284.843 342.343C289.883 347.383 298.5 343.814 298.5 336.686V304.728C298.5 302.606 297.657 300.571 296.157 299.071L286.157 289.071C281.117 284.031 272.5 287.601 272.5 294.728V326.686ZM382.843 82.3432C381.343 80.8429 380.5 78.8081 380.5 76.6864L380.5 42.728C380.5 35.6008 389.117 32.0314 394.157 37.0711L404.157 47.0711C405.657 48.5714 406.5 50.6062 406.5 52.728L406.5 86.6863C406.5 93.8136 397.883 97.3829 392.843 92.3432L382.843 82.3432ZM409.843 109.343C408.343 107.843 407.5 105.808 407.5 103.686L407.5 69.728C407.5 62.6007 416.117 59.0314 421.157 64.0711L431.157 74.0711C432.657 75.5714 433.5 77.6062 433.5 79.728V113.686C433.5 120.814 424.883 124.383 419.843 119.343L409.843 109.343ZM436.843 136.343C435.343 134.843 434.5 132.808 434.5 130.686V96.728C434.5 89.6007 443.117 86.0314 448.157 91.0711L458.157 101.071C459.657 102.571 460.5 104.606 460.5 106.728V140.686C460.5 147.814 451.883 151.383 446.843 146.343L436.843 136.343ZM463.843 163.343C462.343 161.843 461.5 159.808 461.5 157.686V123.728C461.5 116.601 470.117 113.031 475.157 118.071L485.157 128.071C486.657 129.571 487.5 131.606 487.5 133.728V167.686C487.5 174.814 478.883 178.383 473.843 173.343L463.843 163.343ZM490.843 190.343C489.343 188.843 488.5 186.808 488.5 184.686V150.728C488.5 143.601 497.117 140.031 502.157 145.071L512.157 155.071C513.657 156.571 514.5 158.606 514.5 160.728V194.686C514.5 201.814 505.883 205.383 500.843 200.343L490.843 190.343ZM517.843 217.343C516.343 215.843 515.5 213.808 515.5 211.686V177.728C515.5 170.601 524.117 167.031 529.157 172.071L545.157 188.071C546.657 189.571 547.5 191.606 547.5 193.728V227.686C547.5 234.814 538.883 238.383 533.843 233.343L517.843 217.343ZM514.5 218.728C514.5 216.606 513.657 214.571 512.157 213.071L502.157 203.071C497.117 198.031 488.5 201.601 488.5 208.728V242.686C488.5 244.808 489.343 246.843 490.843 248.343L514.5 272C514.109 272.391 513.476 272.391 513.086 272L502.157 261.071C497.117 256.031 488.5 259.601 488.5 266.728V323.686C488.5 325.808 489.343 327.843 490.843 329.343L500.843 339.343C505.883 344.383 514.5 340.814 514.5 333.686V272V218.728ZM487.5 191.728C487.5 189.606 486.657 187.571 485.157 186.071L475.157 176.071C470.117 171.031 461.5 174.601 461.5 181.728V215.686C461.5 217.808 462.343 219.843 463.843 221.343L473.843 231.343C478.883 236.383 487.5 232.814 487.5 225.686V191.728ZM460.5 164.728C460.5 162.606 459.657 160.571 458.157 159.071L448.157 149.071C443.117 144.031 434.5 147.601 434.5 154.728V188.686C434.5 190.808 435.343 192.843 436.843 194.343L446.843 204.343C451.883 209.383 460.5 205.814 460.5 198.686V164.728ZM433.5 137.728C433.5 135.606 432.657 133.571 431.157 132.071L421.157 122.071C416.117 117.031 407.5 120.601 407.5 127.728V161.686C407.5 163.808 408.343 165.843 409.843 167.343L419.843 177.343C424.883 182.383 433.5 178.814 433.5 171.686V137.728ZM406.5 110.728C406.5 108.606 405.657 106.571 404.157 105.071L394.157 95.0712C389.117 90.0314 380.5 93.6008 380.5 100.728V134.686C380.5 136.808 381.343 138.843 382.843 140.343L392.843 150.343C397.883 155.383 406.5 151.814 406.5 144.686V110.728ZM379.5 83.728C379.5 81.6063 378.657 79.5714 377.157 78.0712L367.157 68.0711C362.117 63.0314 353.5 66.6007 353.5 73.7279L353.5 107.686C353.5 109.808 354.343 111.843 355.843 113.343L365.843 123.343C370.883 128.383 379.5 124.814 379.5 117.686V83.728ZM352.5 56.728C352.5 54.6062 351.657 52.5714 350.157 51.0711L340.157 41.0711C335.117 36.0314 326.5 39.6007 326.5 46.728V80.6864C326.5 82.8081 327.343 84.8429 328.843 86.3432L338.843 96.3432C343.883 101.383 352.5 97.8136 352.5 90.6864L352.5 56.728ZM247.843 86.3432C246.343 84.8429 245.5 82.808 245.5 80.6863V23.728C245.5 16.6007 254.117 13.0314 259.157 18.0711L269.157 28.0711C270.657 29.5714 271.5 31.6062 271.5 33.728V90.6863C271.5 97.8135 262.883 101.383 257.843 96.3432L247.843 86.3432ZM274.843 113.343C273.343 111.843 272.5 109.808 272.5 107.686V50.728C272.5 43.6007 281.117 40.0314 286.157 45.0711L296.157 55.0711C297.657 56.5714 298.5 58.6063 298.5 60.728L298.5 117.686C298.5 124.814 289.883 128.383 284.843 123.343L274.843 113.343ZM301.843 140.343C300.343 138.843 299.5 136.808 299.5 134.686L299.5 77.728C299.5 70.6008 308.117 67.0314 313.157 72.0711L323.157 82.0711C324.657 83.5714 325.5 85.6063 325.5 87.728L325.5 144.686C325.5 151.814 316.883 155.383 311.843 150.343L301.843 140.343ZM328.843 167.343C327.343 165.843 326.5 163.808 326.5 161.686L326.5 104.728C326.5 97.6008 335.117 94.0314 340.157 99.0711L350.157 109.071C351.657 110.571 352.5 112.606 352.5 114.728V171.686C352.5 178.814 343.883 182.383 338.843 177.343L328.843 167.343ZM355.843 194.343C354.343 192.843 353.5 190.808 353.5 188.686V131.728C353.5 124.601 362.117 121.031 367.157 126.071L377.157 136.071C378.657 137.571 379.5 139.606 379.5 141.728V198.686C379.5 205.814 370.883 209.383 365.843 204.343L355.843 194.343ZM382.843 221.343C381.343 219.843 380.5 217.808 380.5 215.686V158.728C380.5 151.601 389.117 148.031 394.157 153.071L404.157 163.071C405.657 164.571 406.5 166.606 406.5 168.728V225.686C406.5 232.814 397.883 236.383 392.843 231.343L382.843 221.343ZM409.843 248.343C408.343 246.843 407.5 244.808 407.5 242.686V185.728C407.5 178.601 416.117 175.031 421.157 180.071L431.157 190.071C432.657 191.571 433.5 193.606 433.5 195.728V252.686C433.5 259.814 424.883 263.383 419.843 258.343L409.843 248.343ZM436.843 275.343C435.343 273.843 434.5 271.808 434.5 269.686V212.728C434.5 205.601 443.117 202.031 448.157 207.071L458.157 217.071C459.657 218.571 460.5 220.606 460.5 222.728V279.686C460.5 286.814 451.883 290.383 446.843 285.343L436.843 275.343ZM463.843 302.343C462.343 300.843 461.5 298.808 461.5 296.686V239.728C461.5 232.601 470.117 229.031 475.157 234.071L485.157 244.071C486.657 245.571 487.5 247.606 487.5 249.728V306.686C487.5 313.814 478.883 317.383 473.843 312.343L463.843 302.343ZM460.5 303.728C460.5 301.606 459.657 299.571 458.157 298.071L448.157 288.071C443.117 283.031 434.5 286.601 434.5 293.728V351.686C434.5 353.808 435.343 355.843 436.843 357.343L446.843 367.343C451.883 372.383 460.5 368.814 460.5 361.686V303.728ZM433.5 276.728C433.5 274.606 432.657 272.571 431.157 271.071L421.157 261.071C416.117 256.031 407.5 259.601 407.5 266.728V324.686C407.5 326.808 408.343 328.843 409.843 330.343L419.843 340.343C424.883 345.383 433.5 341.813 433.5 334.686V276.728ZM406.5 249.728C406.5 247.606 405.657 245.571 404.157 244.071L394.157 234.071C389.117 229.031 380.5 232.601 380.5 239.728V297.686C380.5 299.808 381.343 301.843 382.843 303.343L392.843 313.343C397.883 318.383 406.5 314.813 406.5 307.686V249.728ZM379.5 222.728C379.5 220.606 378.657 218.571 377.157 217.071L367.157 207.071C362.117 202.031 353.5 205.601 353.5 212.728V270.686C353.5 272.808 354.343 274.843 355.843 276.343L365.843 286.343C370.883 291.383 379.5 287.814 379.5 280.686V222.728ZM352.5 195.728C352.5 193.606 351.657 191.571 350.157 190.071L340.157 180.071C335.117 175.031 326.5 178.601 326.5 185.728V243.686C326.5 245.808 327.343 247.843 328.843 249.343L338.843 259.343C343.883 264.383 352.5 260.813 352.5 253.686V195.728ZM325.5 168.728C325.5 166.606 324.657 164.571 323.157 163.071L313.157 153.071C308.117 148.031 299.5 151.601 299.5 158.728V216.686C299.5 218.808 300.343 220.843 301.843 222.343L311.843 232.343C316.883 237.383 325.5 233.814 325.5 226.686V168.728ZM298.5 141.728C298.5 139.606 297.657 137.571 296.157 136.071L286.157 126.071C281.117 121.031 272.5 124.601 272.5 131.728V189.686C272.5 191.808 273.343 193.843 274.843 195.343L284.843 205.343C289.883 210.383 298.5 206.814 298.5 199.686V141.728ZM271.5 114.728C271.5 112.606 270.657 110.571 269.157 109.071L259.157 99.0711C254.117 94.0314 245.5 97.6007 245.5 104.728V162.686C245.5 164.808 246.343 166.843 247.843 168.343L257.843 178.343C262.883 183.383 271.5 179.814 271.5 172.686V114.728ZM244.5 87.7279C244.5 85.6062 243.657 83.5714 242.157 82.0711L232.157 72.0711C227.117 67.0313 218.5 70.6007 218.5 77.7279L218.5 135.686C218.5 137.808 219.343 139.843 220.843 141.343L230.843 151.343C235.883 156.383 244.5 152.814 244.5 145.686V87.7279ZM217.5 60.7279C217.5 58.6062 216.657 56.5714 215.157 55.0711L205.157 45.0711C200.117 40.0313 191.5 43.6007 191.5 50.7279V108.686C191.5 110.808 192.343 112.843 193.843 114.343L203.843 124.343C208.883 129.383 217.5 125.813 217.5 118.686L217.5 60.7279ZM190.5 33.7279C190.5 31.6062 189.657 29.5714 188.157 28.0711L178.157 18.0711C173.117 13.0314 164.5 16.6007 164.5 23.7279V81.6863C164.5 83.808 165.343 85.8429 166.843 87.3431L176.843 97.3431C181.883 102.383 190.5 98.8135 190.5 91.6863V33.7279ZM85.8431 87.3431C84.3429 85.8429 83.5 83.808 83.5 81.6863V24.7279C83.5 17.6007 92.1171 14.0314 97.1569 19.0711L107.157 29.0711C108.657 30.5714 109.5 32.6062 109.5 34.7279L109.5 91.6863C109.5 98.8135 100.883 102.383 95.8431 97.3431L85.8431 87.3431ZM112.843 114.343C111.343 112.843 110.5 110.808 110.5 108.686L110.5 51.7279C110.5 44.6007 119.117 41.0313 124.157 46.0711L134.157 56.0711C135.657 57.5714 136.5 59.6062 136.5 61.7279V118.686C136.5 125.814 127.883 129.383 122.843 124.343L112.843 114.343ZM139.843 141.343C138.343 139.843 137.5 137.808 137.5 135.686V78.7279C137.5 71.6007 146.117 68.0313 151.157 73.0711L161.157 83.0711C162.657 84.5714 163.5 86.6062 163.5 88.7279V145.686C163.5 152.814 154.883 156.383 149.843 151.343L139.843 141.343ZM166.843 168.343C165.343 166.843 164.5 164.808 164.5 162.686V105.728C164.5 98.6007 173.117 95.0313 178.157 100.071L188.157 110.071C189.657 111.571 190.5 113.606 190.5 115.728V172.686C190.5 179.814 181.883 183.383 176.843 178.343L166.843 168.343ZM193.843 195.343C192.343 193.843 191.5 191.808 191.5 189.686V132.728C191.5 125.601 200.117 122.031 205.157 127.071L215.157 137.071C216.657 138.571 217.5 140.606 217.5 142.728V199.686C217.5 206.814 208.883 210.383 203.843 205.343L193.843 195.343ZM220.843 222.343C219.343 220.843 218.5 218.808 218.5 216.686V159.728C218.5 152.601 227.117 149.031 232.157 154.071L242.157 164.071C243.657 165.571 244.5 167.606 244.5 169.728V226.686C244.5 233.814 235.883 237.383 230.843 232.343L220.843 222.343ZM247.843 249.343C246.343 247.843 245.5 245.808 245.5 243.686V186.728C245.5 179.601 254.117 176.031 259.157 181.071L269.157 191.071C270.657 192.571 271.5 194.606 271.5 196.728V253.686C271.5 260.814 262.883 264.383 257.843 259.343L247.843 249.343ZM274.843 276.343C273.343 274.843 272.5 272.808 272.5 270.686V213.728C272.5 206.601 281.117 203.031 286.157 208.071L296.157 218.071C297.657 219.571 298.5 221.606 298.5 223.728V280.686C298.5 287.814 289.883 291.383 284.843 286.343L274.843 276.343ZM301.843 303.343C300.343 301.843 299.5 299.808 299.5 297.686V240.728C299.5 233.601 308.117 230.031 313.157 235.071L323.157 245.071C324.657 246.571 325.5 248.606 325.5 250.728V307.686C325.5 314.814 316.883 318.383 311.843 313.343L301.843 303.343ZM328.843 330.343C327.343 328.843 326.5 326.808 326.5 324.686V267.728C326.5 260.601 335.117 257.031 340.157 262.071L350.157 272.071C351.657 273.571 352.5 275.606 352.5 277.728V334.686C352.5 341.814 343.883 345.383 338.843 340.343L328.843 330.343ZM355.843 357.343C354.343 355.843 353.5 353.808 353.5 351.686V294.728C353.5 287.601 362.117 284.031 367.157 289.071L377.157 299.071C378.657 300.571 379.5 302.606 379.5 304.728V361.686C379.5 368.814 370.883 372.383 365.843 367.343L355.843 357.343Z" fill="url(#paint0_diamond_201_1780)"/>
  <defs>
    <radialGradient id="paint0_diamond_201_1780" cx="0" cy="0" r="1" gradientUnits="userSpaceOnUse" gradientTransform="translate(295.971 177.018) rotate(89.0098) scale(231.288 308.723)">
      <stop offset="0.556667" stop-color="#12141A"/>
      <stop offset="0.716667" stop-color="#DB7386"/>
      <stop offset="0.841667" stop-color="#FF9561"/>
      <stop offset="0.916667" stop-color="#C73587"/>
      <stop offset="1" stop-color="#111215"/>
    </radialGradient>
  </defs>
</svg>